<svg width="88" height="35" viewBox="0 0 88 35" fill="none" xmlns="http://www.w3.org/2000/svg">
<path d="M12.6772 9.73753C5.28215 9.73753 0 15.2493 0 22.3688C0 29.4882 5.28215 35 12.6772 35C20.0262 35 25.3084 29.4882 25.3084 22.3688C25.3084 15.2493 20.0262 9.73753 12.6772 9.73753ZM18.6483 22.3688C18.6483 26.3189 16.2598 29.3963 12.6772 29.3963C9.09449 29.3963 6.6601 26.3189 6.6601 22.3688C6.6601 18.4186 9.09449 15.3412 12.6772 15.3412C16.2598 15.3412 18.6483 18.4186 18.6483 22.3688Z" fill="#0C29D0"/>
<path d="M35.6057 0H29.0834V34.4488H35.6057V0Z" fill="#0C29D0"/>
<path d="M47.5605 34.4488V10.2887H41.0382V34.4488H47.5605ZM47.5605 6.9357V1.37795H41.0382V6.9357H47.5605Z" fill="#0C29D0"/>
<path d="M69.7122 12.9068C67.4615 10.794 64.5678 9.73753 61.3526 9.73753C56.9432 9.73753 52.7175 12.2178 52.7175 17.1325C52.7175 21.3583 55.8867 23.0118 58.7804 24.252C61.1689 25.3084 63.3736 26.0433 63.3736 27.7428C63.3736 29.2126 61.6282 29.8556 60.2962 29.8556C57.9537 29.8556 56.4379 28.7992 54.6007 27.0079L50.8802 30.8661C53.5442 33.5302 56.8513 35 60.6177 35C65.3028 35 69.8959 32.5656 69.8959 27.2375C69.8959 22.6444 65.9458 21.0827 62.8224 19.7966C60.8014 18.9698 59.0101 18.189 59.0101 16.6732C59.0101 15.5249 60.1125 14.836 61.3526 14.836C63.1899 14.836 64.8894 15.7546 66.1295 16.857L69.7122 12.9068Z" fill="#0C29D0"/>
<path d="M87.1408 15.7087V10.2887H80.9859V4.96063H75.4741L74.4636 10.2887H71.5699V15.7087H74.4636V25.7677C74.4636 27.1916 74.5555 28.6155 74.923 29.8097C75.7957 32.9331 78.3219 35 82.0883 35C83.9715 35 86.2681 34.4948 87.8298 33.5761L85.8088 28.7533C84.982 29.1667 84.2012 29.4423 83.1907 29.4423C81.8127 29.4423 81.2615 28.5696 81.0778 27.1457C80.9859 26.4567 80.9859 25.8136 80.9859 25.0787V15.7087H87.1408Z" fill="#0C29D0"/>
</svg>
